<?xml version="1.0"?>
<svg xmlns="http://www.w3.org/2000/svg" xmlns:xlink="http://www.w3.org/1999/xlink" version="1.1" viewBox="0 0 224 224" width="700px" height="700px"><g fill="none" fill-rule="nonzero" stroke="none" stroke-width="1" stroke-linecap="butt" stroke-linejoin="miter" stroke-miterlimit="10" stroke-dasharray="" stroke-dashoffset="0" font-family="none" font-weight="none" font-size="none" text-anchor="none" style="mix-blend-mode: normal"><path d="M0,224v-224h224v224z" fill="none"/><g id="original-icon" fill="#ffffff"><g id="surface1"><path d="M209.6325,98.9625l-84.595,-84.595c-3.5875,-3.605 -8.3125,-5.4075 -13.0375,-5.4075c-4.725,0 -9.45,1.8025 -13.0375,5.4075l-16.73,16.73l20.7025,20.7025c6.8775,-4.0425 15.8375,-3.1675 21.735,2.73c5.8975,5.8975 6.755,14.8575 2.7125,21.7175l20.3525,20.3525c6.8775,-4.0425 15.8375,-3.1675 21.735,2.73c7,7 7,18.34 0,25.34c-7,7 -18.34,7 -25.34,0c-5.8975,-5.8975 -6.7725,-14.8575 -2.73,-21.735l-20.3525,-20.3525c-1.4525,0.8575 -2.975,1.4875 -4.5675,1.89v55.0375c7.7175,1.995 13.44,8.9425 13.44,17.29c0,9.905 -8.015,17.92 -17.92,17.92c-9.905,0 -17.92,-8.015 -17.92,-17.92c0,-8.3475 5.7225,-15.295 13.44,-17.29v-55.0375c-2.9925,-0.77 -5.845,-2.2575 -8.19,-4.6025c-5.8975,-5.8975 -6.755,-14.8575 -2.7125,-21.7175l-20.72,-20.72l-61.53,61.53c-7.21,7.1925 -7.21,18.8825 0,26.075l84.595,84.595c3.5875,3.605 8.3125,5.4075 13.0375,5.4075c4.725,0 9.45,-1.8025 13.0375,-5.4075l84.595,-84.595c7.21,-7.1925 7.21,-18.8825 0,-26.075z"/></g></g></g></svg>
